<?xml version="1.0" standalone="no"?>
<!DOCTYPE svg PUBLIC "-//W3C//DTD SVG 20010904//EN"
 "http://www.w3.org/TR/2001/REC-SVG-20010904/DTD/svg10.dtd">
<svg version="1.0" xmlns="http://www.w3.org/2000/svg"
 width="1200.000000pt" height="1200.000000pt" viewBox="0 0 1200.000000 1200.000000"
 preserveAspectRatio="xMidYMid meet">

<g transform="translate(0.000000,1200.000000) scale(0.100000,-0.100000)"
fill="#000000" stroke="none">
<path d="M3250 10729 c-874 -76 -1673 -563 -2175 -1324 -266 -404 -433 -847
-510 -1350 -8 -55 -20 -187 -27 -292 -33 -528 80 -1124 297 -1561 393 -793
1677 -2101 3710 -3782 600 -496 1425 -1145 1455 -1145 21 0 293 209 820 630
1681 1345 3006 2560 3736 3425 414 491 616 818 742 1202 240 728 226 1491 -41
2218 -242 662 -711 1234 -1296 1583 -947 566 -2085 536 -3006 -79 -172 -114
-267 -194 -451 -378 -180 -181 -326 -363 -438 -549 -32 -53 -62 -97 -66 -97
-4 0 -31 39 -60 88 -132 217 -282 403 -481 597 -154 150 -258 235 -414 339
-538 360 -1178 529 -1795 475z m-145 -1328 c18 -7 14 -11 -25 -31 -76 -39
-200 -120 -305 -198 -112 -85 -333 -300 -417 -408 -269 -342 -445 -764 -503
-1209 -6 -43 -9 -47 -20 -32 -26 36 -97 233 -123 340 -24 101 -26 130 -26 302
1 180 2 196 32 308 58 220 170 417 326 573 187 187 424 306 696 349 93 14 333
18 365 6z"/>
</g>
</svg>
